<?xml version="1.0" encoding="UTF-8" standalone="no"?>
<!-- Generator: Adobe Illustrator 16.0.3, SVG Export Plug-In . SVG Version: 6.00 Build 0)  -->

<svg
   xmlns:dc="http://purl.org/dc/elements/1.1/"
   xmlns:cc="http://creativecommons.org/ns#"
   xmlns:rdf="http://www.w3.org/1999/02/22-rdf-syntax-ns#"
   xmlns:svg="http://www.w3.org/2000/svg"
   xmlns="http://www.w3.org/2000/svg"
   xmlns:sodipodi="http://sodipodi.sourceforge.net/DTD/sodipodi-0.dtd"
   xmlns:inkscape="http://www.inkscape.org/namespaces/inkscape"
   version="1.1"
   x="0px"
   y="0px"
   width="400"
   height="400"
   viewBox="0 0 400 400"
   enable-background="new 0 0 910.333 208"
   xml:space="preserve"
   id="svg2"
   inkscape:version="0.48.5 r10040"
   sodipodi:docname="popcorn-logo.svg"
   inkscape:export-filename="/home/panaggio/workspace/talks/talk-webmaker/imgs/popcorn.png"
   inkscape:export-xdpi="90"
   inkscape:export-ydpi="90"><metadata
     id="metadata219"><rdf:RDF><cc:Work
         rdf:about=""><dc:format>image/svg+xml</dc:format><dc:type
           rdf:resource="http://purl.org/dc/dcmitype/StillImage" /><dc:title></dc:title></cc:Work></rdf:RDF></metadata><defs
     id="defs217" /><sodipodi:namedview
     pagecolor="#ffffff"
     bordercolor="#666666"
     borderopacity="1"
     objecttolerance="10"
     gridtolerance="10"
     guidetolerance="10"
     inkscape:pageopacity="0"
     inkscape:pageshadow="2"
     inkscape:window-width="1366"
     inkscape:window-height="741"
     id="namedview215"
     showgrid="false"
     showguides="true"
     inkscape:guide-bbox="true"
     inkscape:zoom="0.8177296"
     inkscape:cx="455.1665"
     inkscape:cy="104"
     inkscape:window-x="0"
     inkscape:window-y="27"
     inkscape:window-maximized="1"
     inkscape:current-layer="svg2" /><g
     id="GUIDES"
     display="none"
     style="display:none"
     transform="translate(0,192)"><circle
       display="inline"
       stroke-miterlimit="10"
       cx="179.828"
       cy="171.673"
       r="7.006"
       id="circle5"
       sodipodi:cx="179.828"
       sodipodi:cy="171.673"
       sodipodi:rx="7.006"
       sodipodi:ry="7.006"
       style="fill:none;stroke:#00ffff;stroke-width:0.75;stroke-miterlimit:10;display:inline"
       d="m 186.834,171.673 c 0,3.86931 -3.13669,7.006 -7.006,7.006 -3.8693,0 -7.006,-3.13669 -7.006,-7.006 0,-3.8693 3.1367,-7.006 7.006,-7.006 3.86931,0 7.006,3.1367 7.006,7.006 z" /><circle
       display="inline"
       stroke-miterlimit="10"
       cx="179.828"
       cy="70.503998"
       r="7.006"
       id="circle7"
       sodipodi:cx="179.828"
       sodipodi:cy="70.503998"
       sodipodi:rx="7.006"
       sodipodi:ry="7.006"
       style="fill:none;stroke:#00ffff;stroke-width:0.75;stroke-miterlimit:10;display:inline"
       d="m 186.834,70.503998 c 0,3.869307 -3.13669,7.006 -7.006,7.006 -3.8693,0 -7.006,-3.136693 -7.006,-7.006 0,-3.869307 3.1367,-7.006 7.006,-7.006 3.86931,0 7.006,3.136693 7.006,7.006 z" /><circle
       display="inline"
       stroke-miterlimit="10"
       cx="165.46001"
       cy="171.673"
       r="7.006"
       id="circle9"
       sodipodi:cx="165.46001"
       sodipodi:cy="171.673"
       sodipodi:rx="7.006"
       sodipodi:ry="7.006"
       style="fill:none;stroke:#00ffff;stroke-width:0.75;stroke-miterlimit:10;display:inline"
       d="m 172.46601,171.673 c 0,3.86931 -3.1367,7.006 -7.006,7.006 -3.86931,0 -7.006,-3.13669 -7.006,-7.006 0,-3.8693 3.13669,-7.006 7.006,-7.006 3.8693,0 7.006,3.1367 7.006,7.006 z" /><circle
       display="inline"
       stroke-miterlimit="10"
       cx="151.092"
       cy="171.673"
       r="7.006"
       id="circle11"
       sodipodi:cx="151.092"
       sodipodi:cy="171.673"
       sodipodi:rx="7.006"
       sodipodi:ry="7.006"
       style="fill:none;stroke:#00ffff;stroke-width:0.75;stroke-miterlimit:10;display:inline"
       d="m 158.098,171.673 c 0,3.86931 -3.1367,7.006 -7.006,7.006 -3.86931,0 -7.006,-3.13669 -7.006,-7.006 0,-3.8693 3.13669,-7.006 7.006,-7.006 3.8693,0 7.006,3.1367 7.006,7.006 z" /></g><path
     d="M 90.986272,185.01891 107.46574,314.16977 131.95229,330.9997 120.71981,202.1894 90.986272,185.01891 z m 66.458408,163.49976 24.04698,16.53094 V 237.27285 l -31.30167,-18.06939 7.25469,129.31521 z"
     id="path30"
     inkscape:connector-curvature="0"
     style="fill:#fbfaf1" /><polyline
     points="77.881,57.689 77.881,117.49 129.671,87.589 77.881,57.689   "
     id="polyline32"
     style="fill:#676867"
     transform="matrix(1.9799912,0,0,1.9799912,46.41865,-6.085881)" /><polyline
     points="26.093,87.589 77.881,117.49 77.881,57.689 26.093,87.589   "
     id="polyline34"
     style="fill:#c0c1bc"
     transform="matrix(1.9799912,0,0,1.9799912,46.41865,-6.085881)" /><path
     d="m 331.45818,167.33957 c 0,-3.36797 -1.79783,-6.48249 -4.71436,-8.16746 L 205.34066,89.082395 c -1.46124,-0.841496 -3.0868,-1.263234 -4.71435,-1.263234 v 20.324609 l 102.53978,59.1958 -102.53978,59.19975 V 399.0718 c 1.86712,0 3.72633,-0.55441 5.33607,-1.66122 l 101.97351,-70.09367 c 2.21561,-1.52062 3.67486,-3.91048 4.01938,-6.57356 l 19.42768,-152.20787 h -0.008 c 0.0534,-0.40193 0.0832,-0.79595 0.0832,-1.19591 m -87.65619,181.1791 -23.70247,16.29334 V 237.07288 l 30.95517,-17.87339 -7.2527,129.31918 m 49.9829,-34.35088 -24.48655,16.82992 11.23248,-128.81029 29.7375,-17.17049 -16.48343,129.15086"
     id="path36"
     inkscape:connector-curvature="0"
     style="fill:#a42b1d" /><path
     d="m 200.62631,226.53932 -0.004,0.004 -102.53978,-59.20372 102.53978,-59.19976 0.004,0.004 V 87.819161 c 1.62755,0 3.25311,0.421738 4.71435,1.263234 -2.92048,-1.686953 -6.51615,-1.686953 -9.43268,0 L 74.506805,159.17013 c -2.914547,1.68695 -4.714359,4.7995 -4.714359,8.16745 0,0.39996 0.03168,0.79399 0.0792,1.19592 h -0.0019 L 89.29539,320.74136 c 0.336599,2.66507 1.801793,5.05493 4.01344,6.57357 l 101.97746,70.09367 c 1.60775,1.10681 3.47093,1.66121 5.34004,1.66121 h 0.004 V 226.53932 M 107.4657,314.16779 90.986229,185.01693 120.71977,202.18742 131.95225,330.99771 107.4657,314.16779 m 74.02592,50.87983 -24.04698,-16.53093 -7.25667,-129.3172 31.30169,18.0694 v 127.77873"
     id="path38"
     inkscape:connector-curvature="0"
     style="fill:#d83920" /><path
     d="m 265.67892,51.151705 c -4.6708,-4.66684 -10.37318,-8.161525 -16.5864,-10.309814 0.006,-0.279179 0.0317,-0.562318 0.0317,-0.841497 0,-21.181946 -17.23582,-38.4217291 -38.42172,-38.4217291 -15.30337,0 -28.79898,8.9456011 -34.9429,22.4610201 -29.78302,4.017402 -52.99841,29.842427 -52.99841,60.518431 0,33.693504 27.41099,61.108474 61.10648,61.108474 17.28532,0 33.79053,-7.47051 45.31605,-20.2276 1.85527,0.23562 3.71249,0.36828 5.56774,0.36828 11.43841,0 22.6214,-4.48863 30.92945,-12.79667 8.26052,-8.26054 12.81053,-19.245526 12.81053,-30.925494 -0.002,-11.687887 -4.55001,-22.672878 -12.81251,-30.933401 m -13.73719,48.123683 c -6.23499,6.238952 -15.39047,8.601092 -23.90047,6.167672 l -2.66308,9.30596 -0.004,0.0278 -0.004,0.004 -0.002,-0.004 -8.48029,-4.89652 c -7.9754,10.40089 -19.94049,16.35473 -33.02031,16.35473 -22.98374,0 -41.68278,-18.69112 -41.68278,-41.678814 0,-22.500619 18.31888,-41.177877 40.83533,-41.621395 l 7.48438,-0.15444 1.76219,-7.270526 c 2.07305,-8.543662 9.66037,-14.507397 18.43768,-14.507397 10.47415,0 18.99999,8.517923 18.99999,18.996036 0,1.785952 -0.27917,3.629324 -0.83753,5.468736 l 9.30001,2.803668 -1.85525,9.650476 c 0.14058,0.0099 0.2772,0.0079 0.41383,0.0039 0.15641,-0.002 0.31282,-0.0059 0.47321,0.0099 5.66871,0.568259 10.76719,2.969988 14.74697,6.947789 4.58764,4.59556 7.12006,10.701853 7.12006,17.196224 0,6.494371 -2.53242,12.608584 -7.12402,17.196218"
     id="path40"
     inkscape:connector-curvature="0"
     style="fill:#f4d256" /><path
     d="m 228.04126,105.44505 c 8.50802,2.43341 17.6635,0.0713 23.90047,-6.167681 4.59161,-4.587638 7.12402,-10.701851 7.12402,-17.196222 0,-6.494372 -2.53043,-12.598684 -7.12005,-17.196223 -3.97979,-3.975823 -9.07826,-6.379533 -14.74697,-6.947789 -0.30096,-0.0297 -0.58609,0.0059 -0.88705,-0.01387 l 1.85526,-9.650477 -9.30002,-2.803668 c 0.55836,-1.839412 0.83754,-3.682783 0.83754,-5.468735 0,-10.478113 -8.52584,-18.996035 -18.99999,-18.996035 -8.77731,0 -16.36463,5.963732 -18.43769,14.507395 l -1.76219,7.270528 -7.48438,0.154438 c -22.51447,0.443519 -40.83533,19.120776 -40.83533,41.621396 0,22.987703 18.69904,41.678823 41.68278,41.678823 13.07983,0 25.04491,-5.95185 33.02032,-16.35473 l 8.48029,4.89652 0.002,0.004 0.004,-0.004 0.004,-0.0277 2.66308,-9.30596 z"
     id="path42"
     inkscape:connector-curvature="0"
     style="fill:#fcf9e2" /><path
     d="m 136.46271,123.07488 -16.97644,9.80096 c 0.0573,0.0772 0.11483,0.15047 0.17027,0.2277 l 16.98635,-9.8069 c -0.0594,-0.0733 -0.12079,-0.14651 -0.18018,-0.22176 m 121.51205,-3.93028 c -0.089,0.0573 -0.18016,0.11286 -0.27124,0.16829 l 18.30897,10.5692 c 0.0753,-0.0653 0.14849,-0.1287 0.22374,-0.19404 L 257.97476,119.1446"
     id="path44"
     inkscape:connector-curvature="0"
     style="fill:#c3c5c7" /><path
     d="m 229.18371,125.43899 c -7.71008,8.53377 -17.64964,14.70342 -28.55939,17.85161 v 20.00978 c 13.34713,-2.87692 25.79929,-9.1337 36.11702,-18.11691 7.12204,-0.22573 14.14308,-1.65528 20.75824,-4.20749 L 230.91423,125.6271 c -0.57618,-0.0515 -1.15433,-0.11485 -1.73052,-0.18811"
     id="path46"
     inkscape:connector-curvature="0"
     style="fill:#4f5050" /><path
     d="m 151.60568,136.43785 -18.43767,10.64442 c 13.85003,11.2523 31.50165,18.00604 50.69768,18.00604 5.67861,0 11.29189,-0.61181 16.75467,-1.78793 v -20.01176 c -5.39943,1.55825 -11.03449,2.37599 -16.75467,2.37599 -0.0356,0 -0.0713,0 -0.10495,0 -0.0119,0 -0.0237,0 -0.0356,0 -0.0217,0 -0.0475,0 -0.0713,0 -0.0138,0 -0.0278,0 -0.0416,0 -0.0217,0 -0.0436,0 -0.0653,0 -0.0139,0 -0.0277,0 -0.0416,0 -0.0217,0 -0.0416,0 -0.0653,0 -0.0138,0 -0.0298,0 -0.0436,0 -0.0218,0 -0.0436,0 -0.0673,0 -0.0119,0 -0.0257,0 -0.0375,0 -0.0257,0 -0.0534,0 -0.0811,0 -0.008,0 -0.0158,0 -0.0257,0 -0.1089,0 -0.21978,-0.002 -0.32868,-0.004 0,0 -0.002,0 -0.004,0 -0.0356,0 -0.0713,-0.002 -0.10493,-0.002 -0.002,0 -0.006,0 -0.008,0 -0.0356,0 -0.0713,-0.002 -0.10494,-0.002 h -0.002 c -11.36318,-0.22968 -21.98385,-3.57388 -31.02647,-9.21884"
     id="path48"
     inkscape:connector-curvature="0"
     style="fill:#939593" /><path
     d="m 257.70352,119.31289 c -6.85078,4.21739 -14.73907,6.45874 -22.76199,6.49438 h 0 c -0.0277,0 -0.0574,0 -0.0851,0 -0.006,0 -0.0138,0 -0.0198,0 -0.0297,0 -0.0594,0 -0.0871,0 -1.2771,0 -2.55814,-0.0634 -3.83524,-0.17819 l 26.58337,15.3469 c 6.68642,-2.57993 12.95903,-6.30428 18.51291,-11.09389 l -18.307,-10.5692"
     id="path50"
     inkscape:connector-curvature="0"
     style="fill:#7d2117" /><path
     d="m 136.64289,123.29862 -16.98635,9.80689 c 3.92831,5.18363 8.46842,9.88016 13.51344,13.97874 l 18.43768,-10.64442 c -5.67664,-3.54419 -10.73353,-7.99323 -14.96477,-13.14121"
     id="path52"
     inkscape:connector-curvature="0"
     style="fill:#a52c19" /><path
     d="m 183.65581,145.66659 c 0.0217,0 0.0475,0 0.0713,0 -0.0257,0 -0.0475,0 -0.0713,0 m -0.10693,-0.002 c 0.0218,0 0.0436,0 0.0653,0 -0.0218,0 -0.0436,0 -0.0653,0 m -0.10494,0 c 0.0217,0 0.0416,0 0.0653,0 -0.0218,0 -0.0436,0 -0.0653,0 m -0.11088,0 c 0.0218,0 0.0436,0 0.0673,0 -0.0237,0 -0.0455,0 -0.0673,0 m -0.11682,-0.002 c 0.0257,0 0.0534,0 0.0811,0 -0.0278,0 -0.0534,0 -0.0811,0 m -0.35244,-0.004 c 0.1089,0 0.21978,0.002 0.32867,0.004 -0.11087,-0.002 -0.21977,-0.004 -0.32867,-0.004 m -0.11087,-0.002 c 0.0356,0 0.0713,0 0.10493,0.002 -0.0336,-0.002 -0.0692,-0.002 -0.10493,-0.002 m -0.11287,-0.004 c 0.0356,0 0.0713,0.002 0.10494,0.002 -0.0356,0 -0.0713,0 -0.10494,-0.002 m 52.30147,-19.8451 c -0.0297,0 -0.0574,0 -0.0851,0 0.0277,0 0.0573,0 0.0851,0 m -5.75782,-0.36828 c -11.52552,12.7571 -28.03073,20.2276 -45.31605,20.2276 -0.0356,0 -0.0712,0 -0.10494,0 0.0356,0 0.0713,0 0.10494,0 5.72218,0 11.35723,-0.81972 16.75468,-2.37599 10.91173,-3.14819 20.85129,-9.31784 28.56137,-17.85161 0.57817,0.0733 1.15434,0.13663 1.7325,0.19009 1.27907,0.11682 2.55814,0.17819 3.83524,0.17819 0.0278,0 0.0573,0 0.0871,0 -0.0297,0 -0.0574,0 -0.0871,0 -1.85525,0 -3.71446,-0.13266 -5.56774,-0.36828 m -92.70319,-2.37401 -0.0178,0.0102 c 0.0594,0.0753 0.12079,0.14849 0.18018,0.22174 4.23125,5.14799 9.28814,9.59702 14.96478,13.13923 l 0,0 c 9.04262,5.64495 19.66131,8.99114 31.03042,9.21488 -18.60993,-0.3663 -35.1884,-9.10796 -46.15756,-22.58576 m 121.45267,-3.94414 c -6.90819,4.31637 -14.87171,6.64881 -22.99166,6.68643 8.02094,-0.0356 15.90923,-2.27699 22.76199,-6.49437 0.0911,-0.0554 0.18016,-0.11088 0.27124,-0.16831 l -0.0415,-0.0237"
     id="path54"
     inkscape:connector-curvature="0"
     style="fill:#bba243" /><path
     d="m 280.53082,202.18742 -11.23248,128.81029 24.48655,-16.82992 16.48343,-129.15086 -29.7375,17.17049 z m -60.4313,162.62459 23.70247,-16.29334 7.2527,-129.3172 -30.95517,17.87339 v 127.73715 z"
     id="path56"
     inkscape:connector-curvature="0"
     style="fill:#c0c1bc" /><g
     id="Goggles"
     display="none"
     style="display:none"
     transform="translate(0,192)"><g
       display="inline"
       id="g88"
       style="display:inline"><g
         id="g90"><path
           d="M 208.31,61.014 V 39.285 c 0,-3.921 -0.45,-4.693 -2.699,-4.693 -1.607,0 -3.858,1.092 -5.722,2.764 v 23.659 h -8.166 V 39.606 c 0,-4.115 -0.578,-5.08 -2.958,-5.08 -1.607,0 -3.792,0.837 -5.656,2.507 v 23.98 h -8.423 V 38.062 c 0,-4.756 -0.322,-6.813 -1.22,-8.421 l 7.779,-2.122 c 0.579,0.9 0.835,1.672 1.157,3.342 2.249,-2.186 5.015,-3.342 8.036,-3.342 2.701,0 4.95,0.9 6.685,2.701 0.45,0.448 0.9,1.029 1.287,1.607 3.021,-3.086 5.722,-4.308 9.321,-4.308 2.572,0 5.015,0.772 6.494,2.057 1.864,1.607 2.444,3.536 2.444,8.036 v 23.402 h -8.359 z"
           id="path92"
           inkscape:connector-curvature="0"
           style="fill:#333333" /><path
           d="m 245.859,57.156 c -2.508,2.829 -5.787,4.565 -10.865,4.565 -8.936,0 -14.788,-6.686 -14.788,-17.037 0,-10.35 5.915,-17.23 14.788,-17.23 4.693,0 8.357,1.607 11.187,4.952 2.636,3.086 3.793,6.685 3.793,12.022 -10e-4,5.656 -1.286,9.514 -4.115,12.728 z m -7.008,-21.601 c -0.837,-1.092 -2.188,-1.736 -3.729,-1.736 -2.057,0 -3.729,1.286 -4.436,3.343 -0.579,1.735 -0.9,4.051 -0.9,7.329 0,3.795 0.387,6.622 1.094,8.294 0.771,1.8 2.7,2.701 4.371,2.701 3.729,0 5.337,-3.344 5.337,-11.123 -0.001,-4.435 -0.58,-7.329 -1.737,-8.808 z"
           id="path94"
           inkscape:connector-curvature="0"
           style="fill:#333333" /><path
           d="m 274.856,61.014 h -24.237 v -5.336 l 15.492,-21.537 h -14.207 v -6.043 h 24.431 v 5.916 l -14.529,21.022 h 15.107 l -2.057,5.978 z"
           id="path96"
           inkscape:connector-curvature="0"
           style="fill:#333333" /><path
           d="m 283.792,24.368 c -2.893,0 -5.271,-2.377 -5.271,-5.334 0,-2.957 2.443,-5.337 5.4,-5.337 2.893,0 5.208,2.379 5.208,5.337 0,2.958 -2.379,5.334 -5.337,5.334 z m -4.307,36.646 V 28.676 l 8.616,-1.35 v 33.688 h -8.616 z"
           id="path98"
           inkscape:connector-curvature="0"
           style="fill:#333333" /><path
           d="m 301.987,61.786 c -3.665,0 -6.622,-1.735 -7.651,-4.501 -0.643,-1.67 -0.771,-2.699 -0.771,-7.392 V 25.334 c 0,-4.308 -0.128,-6.944 -0.45,-9.901 l 8.808,-1.992 c 0.322,1.8 0.45,3.921 0.45,8.551 v 25.651 c 0,5.656 0.065,6.428 0.579,7.329 0.321,0.579 1.028,0.9 1.736,0.9 0.32,0 0.514,0 0.964,-0.128 l 1.479,5.143 c -1.48,0.577 -3.281,0.899 -5.144,0.899 z"
           id="path100"
           inkscape:connector-curvature="0"
           style="fill:#333333" /><path
           d="m 316.196,61.786 c -3.664,0 -6.622,-1.735 -7.65,-4.501 -0.644,-1.67 -0.772,-2.699 -0.772,-7.392 V 25.334 c 0,-4.308 -0.128,-6.944 -0.449,-9.901 l 8.807,-1.992 c 0.322,1.8 0.45,3.921 0.45,8.551 v 25.651 c 0,5.656 0.065,6.428 0.579,7.329 0.321,0.579 1.028,0.9 1.737,0.9 0.319,0 0.514,0 0.964,-0.128 l 1.479,5.143 c -1.48,0.577 -3.281,0.899 -5.145,0.899 z"
           id="path102"
           inkscape:connector-curvature="0"
           style="fill:#333333" /><path
           d="m 347.181,62.687 c -1.992,-0.837 -3.792,-2.316 -4.628,-3.986 -0.644,0.642 -1.35,1.285 -1.993,1.735 -1.607,1.157 -3.922,1.801 -6.622,1.801 -7.329,0 -11.313,-3.729 -11.313,-10.287 0,-7.715 5.335,-11.315 15.814,-11.315 0.644,0 1.223,0 1.929,0.063 v -1.351 c 0,-3.664 -0.706,-4.885 -3.857,-4.885 -2.765,0 -5.979,1.351 -9.515,3.728 l -3.664,-6.172 c 1.735,-1.092 3.021,-1.735 5.335,-2.699 3.214,-1.35 5.979,-1.929 9.001,-1.929 5.529,0 9.322,2.057 10.607,5.722 0.45,1.35 0.644,2.379 0.579,5.915 l -0.193,11.057 c -0.063,3.601 0.193,5.143 3.086,7.329 l -4.566,5.274 z m -7.328,-16.074 c -5.979,0 -8.036,1.094 -8.036,5.015 0,2.571 1.607,4.308 3.793,4.308 1.607,0 3.214,-0.837 4.5,-2.25 l 0.13,-7.072 h -0.387 z"
           id="path104"
           inkscape:connector-curvature="0"
           style="fill:#333333" /></g></g><g
       display="inline"
       id="g106"
       style="display:inline"><path
         d="m 223.112,165.066 -18.023,-34.534 -17.393,34.534 h -17.771 l 26.72,-46.76 -23.443,-40.458 h 17.645 l 13.99,26.972 13.738,-26.972 h 17.14 l -22.182,39.45 26.97,47.768 h -17.391 z"
         id="path108"
         inkscape:connector-curvature="0"
         style="fill:#333333" /><path
         d="m 239.247,137.212 v -12.855 h 27.603 v 12.855 h -27.603 z"
         id="path110"
         inkscape:connector-curvature="0"
         style="fill:#333333" /><path
         d="M 321.802,165.066 314.24,151.58 c -6.05,-10.713 -10.083,-16.763 -14.873,-21.553 -1.639,-1.638 -2.898,-2.521 -5.672,-2.646 v 37.686 H 279.454 V 77.849 h 26.593 c 19.536,0 28.359,11.343 28.359,24.955 0,12.478 -8.066,23.947 -21.679,23.947 3.15,1.639 8.948,10.083 13.485,17.394 l 12.856,20.922 H 321.802 z M 301.636,89.57 h -7.94 v 27.602 h 7.437 c 7.562,0 11.596,-1.008 14.242,-3.655 2.395,-2.395 3.907,-6.05 3.907,-10.587 0,-8.823 -4.789,-13.36 -17.646,-13.36 z"
         id="path112"
         inkscape:connector-curvature="0"
         style="fill:#333333" /><path
         d="m 390.246,167.713 c -3.907,-1.512 -7.185,-4.537 -8.697,-8.57 -5.167,5.798 -10.713,7.814 -17.519,7.814 -14.621,0 -21.175,-8.066 -21.175,-19.158 0,-14.746 11.092,-22.183 31.51,-22.183 h 4.285 v -3.402 c 0,-7.311 -1.261,-11.218 -8.823,-11.218 -8.192,0 -17.015,5.798 -19.031,7.311 l -6.176,-9.957 c 9.579,-6.05 17.52,-8.697 27.098,-8.697 9.957,0 16.638,3.655 19.41,10.587 1.135,2.772 1.135,6.176 1.009,15.628 l -0.253,18.276 c -0.126,8.57 0.631,11.343 5.546,14.746 l -7.184,8.823 z m -14.369,-32.77 c -13.864,0 -18.023,4.033 -18.023,12.1 0,6.05 3.276,9.831 8.822,9.831 4.411,0 8.696,-2.646 11.47,-6.68 l 0.252,-15.125 c -0.252,0 -1.639,-0.126 -2.521,-0.126 z"
         id="path114"
         inkscape:connector-curvature="0"
         style="fill:#333333" /><path
         d="m 435.371,166.453 c -5.294,15.376 -9.831,23.064 -24.829,25.837 l -4.538,-8.948 c 8.697,-2.395 13.612,-6.05 17.268,-18.275 h -4.411 c -1.765,-7.185 -4.159,-14.116 -6.05,-19.788 l -14.495,-42.979 14.116,-2.395 11.721,38.82 c 1.135,3.781 3.277,13.36 3.529,14.368 0.126,-0.504 2.395,-9.579 4.79,-17.268 l 10.587,-34.534 h 14.872 l -22.56,65.162 z"
         id="path116"
         inkscape:connector-curvature="0"
         style="fill:#333333" /><path
         d="m 521.332,166.201 c -12.226,0 -21.678,-3.907 -28.484,-12.353 -6.68,-8.192 -9.705,-18.023 -9.705,-31.762 0,-17.896 5.42,-30.375 16.386,-38.567 6.302,-4.79 13.107,-6.806 21.552,-6.806 9.957,0 18.78,3.025 25.964,9.201 l -7.311,9.074 c -6.049,-4.663 -11.721,-6.68 -18.401,-6.68 -16.133,0 -22.057,14.116 -22.057,34.534 0,12.226 2.27,20.796 6.429,25.712 3.528,4.159 9.83,6.554 16.511,6.554 4.537,0 8.318,-1.008 11.596,-2.772 v -22.688 h -14.873 l -2.017,-11.847 h 31.636 v 41.088 c -7.942,4.791 -17.521,7.312 -27.226,7.312 z"
         id="path118"
         inkscape:connector-curvature="0"
         style="fill:#333333" /><path
         d="m 587.378,166.705 c -17.267,0 -28.106,-12.982 -28.106,-33.4 0,-20.418 10.966,-33.526 27.854,-33.526 18.149,0 28.484,13.486 28.484,33.652 10e-4,20.545 -10.964,33.274 -28.232,33.274 z m -0.126,-56.465 c -8.822,0 -12.604,6.68 -12.604,22.183 0,18.527 4.663,23.947 12.981,23.947 8.192,0 12.729,-6.681 12.729,-22.688 0.002,-18.022 -5.039,-23.442 -13.106,-23.442 z"
         id="path120"
         inkscape:connector-curvature="0"
         style="fill:#333333" /><path
         d="m 675.86,111.5 c -2.646,0 -4.537,-0.504 -4.915,-0.63 0.378,0.378 4.159,4.538 4.159,11.091 0,11.091 -9.201,19.536 -24.199,19.536 -4.537,1.639 -8.57,4.033 -8.57,6.05 0,2.396 0.882,2.647 15.881,2.647 10.209,0 21.174,5.167 21.174,18.149 0,13.611 -11.344,20.922 -28.358,20.922 -16.511,0 -28.484,-5.42 -28.484,-17.394 0,-2.646 1.008,-6.05 1.26,-6.806 h 13.108 c -0.252,0.504 -1.009,2.772 -1.009,4.537 0,5.924 5.042,9.201 13.99,9.201 9.831,0 15.125,-4.033 15.125,-9.957 0,-6.933 -5.798,-8.823 -17.646,-8.823 -17.141,0 -20.922,-3.402 -20.922,-9.704 0,-6.302 5.293,-8.823 12.1,-10.966 -9.579,-2.772 -14.494,-8.948 -14.494,-18.023 0,-12.982 10.209,-21.553 25.459,-21.553 9.075,0 14.242,3.277 19.41,3.277 4.159,0 8.066,-1.512 11.596,-4.411 l 6.428,8.697 c -3.531,3.026 -6.808,4.16 -11.093,4.16 z m -26.468,-1.26 c -7.058,0 -10.965,3.907 -10.965,11.091 0,7.31 4.159,10.712 10.965,10.712 7.185,0 10.966,-3.78 10.966,-10.839 0,-7.183 -3.655,-10.964 -10.966,-10.964 z"
         id="path122"
         inkscape:connector-curvature="0"
         style="fill:#333333" /><path
         d="m 738.377,111.5 c -2.646,0 -4.537,-0.504 -4.915,-0.63 0.378,0.378 4.159,4.538 4.159,11.091 0,11.091 -9.201,19.536 -24.199,19.536 -4.537,1.639 -8.57,4.033 -8.57,6.05 0,2.396 0.882,2.647 15.881,2.647 10.209,0 21.174,5.167 21.174,18.149 0,13.611 -11.344,20.922 -28.358,20.922 -16.511,0 -28.484,-5.42 -28.484,-17.394 0,-2.646 1.008,-6.05 1.26,-6.806 h 13.108 c -0.252,0.504 -1.009,2.772 -1.009,4.537 0,5.924 5.042,9.201 13.99,9.201 9.831,0 15.125,-4.033 15.125,-9.957 0,-6.933 -5.798,-8.823 -17.646,-8.823 -17.141,0 -20.922,-3.402 -20.922,-9.704 0,-6.302 5.293,-8.823 12.1,-10.966 -9.579,-2.772 -14.494,-8.948 -14.494,-18.023 0,-12.982 10.209,-21.553 25.459,-21.553 9.075,0 14.242,3.277 19.41,3.277 4.159,0 8.066,-1.512 11.596,-4.411 l 6.428,8.697 c -3.53,3.026 -6.807,4.16 -11.093,4.16 z m -26.467,-1.26 c -7.058,0 -10.965,3.907 -10.965,11.091 0,7.31 4.159,10.712 10.965,10.712 7.185,0 10.966,-3.78 10.966,-10.839 -10e-4,-7.183 -3.656,-10.964 -10.966,-10.964 z"
         id="path124"
         inkscape:connector-curvature="0"
         style="fill:#333333" /><path
         d="m 767.873,166.453 c -13.99,0 -13.99,-12.604 -13.99,-18.023 V 94.107 c 0,-8.697 -0.378,-13.36 -1.26,-18.654 l 14.242,-3.151 c 1.008,3.907 1.134,9.201 1.134,17.519 v 54.07 c 0,8.571 0.379,9.957 1.387,11.47 0.756,1.135 2.898,1.765 4.537,1.009 l 2.269,8.57 c -2.522,1.008 -5.168,1.513 -8.319,1.513 z"
         id="path126"
         inkscape:connector-curvature="0"
         style="fill:#333333" /><path
         d="m 795.855,136.96 v 1.008 c 0,8.823 3.277,18.15 15.755,18.15 5.924,0 11.091,-2.143 15.881,-6.303 l 5.419,8.445 c -6.68,5.671 -14.368,8.444 -22.938,8.444 -18.023,0 -29.367,-12.982 -29.367,-33.4 0,-11.218 2.396,-18.653 7.94,-24.955 5.168,-5.924 11.47,-8.571 19.536,-8.571 6.302,0 12.1,1.639 17.52,6.554 5.545,5.042 8.318,12.855 8.318,27.728 v 2.899 h -38.064 z m 12.226,-26.72 c -7.814,0 -12.1,6.176 -12.1,16.511 h 23.569 c 0,-10.335 -4.538,-16.511 -11.469,-16.511 z"
         id="path128"
         inkscape:connector-curvature="0"
         style="fill:#333333" /><path
         d="m 863.416,166.831 c -7.814,0 -16.259,-2.521 -24.452,-7.059 l 4.916,-9.957 c 5.672,3.277 13.486,6.681 20.67,6.681 6.05,0 10.335,-3.655 10.335,-8.949 0,-4.915 -3.15,-7.437 -10.335,-8.948 l -7.688,-1.639 c -9.578,-2.017 -15.25,-8.57 -15.25,-17.519 0,-11.974 9.579,-20.292 23.695,-20.292 8.696,0 15.628,2.646 21.048,5.545 l -4.537,9.579 c -5.924,-3.151 -10.588,-4.664 -15.629,-4.664 -5.924,0 -9.705,3.277 -9.705,8.192 0,3.907 2.143,5.923 8.57,7.562 l 7.94,2.017 c 12.856,3.277 16.259,10.335 16.259,17.771 -0.001,12.858 -10.461,21.68 -25.837,21.68 z"
         id="path130"
         inkscape:connector-curvature="0"
         style="fill:#333333" /></g><g
       display="inline"
       id="g132"
       style="display:inline"><path
         d="m 131.299,91.644 c -1.453,-1.458 -5.194,-4.807 -8.072,-6.355 L 17.435,25.192 C 13.96,23.482 9.024,22.674 5.232,26.471 1.429,30.268 2.007,34.95 3.76,38.34 l 60.097,105.817 c 1.45,2.261 5.078,6.934 6.543,8.381 16.822,16.815 44.077,16.82 60.899,0 16.824,-16.811 16.824,-44.083 0,-60.894 z"
         id="path134"
         inkscape:connector-curvature="0"
         style="opacity:0.6;fill:#f072ab" /><path
         d="m 97.63,26.477 c -3.789,-3.803 -9,-2.995 -12.066,-1.356 L -19.471,84.756 c -3.214,2.05 -7.514,5.43 -8.969,6.888 -16.822,16.811 -16.822,44.083 0,60.894 16.822,16.815 44.083,16.815 60.893,0 1.464,-1.447 4.687,-5.735 5.896,-7.341 L 98.911,38.634 c 1.963,-3.056 2.513,-8.366 -1.281,-12.157 z"
         id="path136"
         inkscape:connector-curvature="0"
         style="opacity:0.8;fill:#26a9e0" /><path
         d="m -28.44,152.538 c -16.822,-16.812 -16.822,-44.083 0,-60.894 16.822,-16.822 44.083,-16.822 60.893,0 16.819,16.811 16.819,44.083 0,60.894 -16.81,16.816 -44.071,16.816 -60.893,0 z"
         id="path138"
         inkscape:connector-curvature="0"
         style="fill:#26a9e0" /><path
         d="m 131.344,152.538 c -16.823,16.82 -44.08,16.815 -60.902,0 -16.82,-16.812 -16.82,-44.077 0,-60.9 16.822,-16.816 44.08,-16.816 60.902,0.006 16.822,16.811 16.822,44.083 0,60.894 z"
         id="path140"
         inkscape:connector-curvature="0"
         style="fill:#f072ab" /><g
         id="g142"><path
           d="m 117.018,139.99 c -8.907,8.896 -23.339,8.896 -32.242,0 -8.91,-8.914 -8.91,-23.34 0,-32.253 8.902,-8.902 23.334,-8.902 32.242,0.011 8.901,8.902 8.901,23.328 0,32.242 z"
           id="path144"
           inkscape:connector-curvature="0"
           style="fill:#ffffff" /><path
           d="m 100.883,111.849 c -9.292,0 -16.831,7.993 -16.831,11.229 0,0.825 0.494,1.604 1.369,2.306 0.841,-1.711 1.896,-3.338 3.33,-4.768 1.547,-1.548 3.315,-2.734 5.191,-3.602 -3.763,3.823 -3.752,9.962 0.056,13.759 3.81,3.814 9.993,3.814 13.815,0 3.814,-3.819 3.814,-10.006 0,-13.82 -0.319,-0.32 -0.679,-0.579 -1.033,-0.842 2.752,0.829 5.347,2.331 7.522,4.504 1.182,1.172 2.086,2.496 2.864,3.871 0.328,-0.449 0.547,-0.92 0.547,-1.408 0,-3.236 -7.53,-11.229 -16.83,-11.229 z m 6.004,9.434 c 0,1.43 -1.161,2.586 -2.591,2.586 -1.435,0 -2.592,-1.156 -2.592,-2.586 0,-1.43 1.157,-2.591 2.592,-2.591 1.43,0 2.591,1.161 2.591,2.591 z"
           id="path146"
           inkscape:connector-curvature="0"
           style="fill:#f072ab" /></g><g
         id="g148"><path
           d="m 16.517,139.99 c -8.901,8.896 -23.345,8.896 -32.241,0 -8.913,-8.914 -8.913,-23.34 0,-32.253 8.896,-8.902 23.34,-8.902 32.241,0.011 8.9,8.902 8.9,23.328 0,32.242 z"
           id="path150"
           inkscape:connector-curvature="0"
           style="fill:#ffffff" /><path
           d="m 0.392,111.849 c -9.3,0 -16.833,7.993 -16.833,11.229 0,0.825 0.481,1.604 1.346,2.306 0.855,-1.711 1.918,-3.338 3.333,-4.768 1.547,-1.543 3.312,-2.729 5.188,-3.595 -3.749,3.825 -3.735,9.956 0.056,13.753 3.814,3.814 10.007,3.814 13.821,0 3.822,-3.819 3.822,-10.006 0,-13.82 -0.325,-0.327 -0.689,-0.585 -1.046,-0.854 2.765,0.831 5.371,2.333 7.554,4.516 1.169,1.172 2.075,2.496 2.866,3.871 0.314,-0.449 0.539,-0.92 0.539,-1.408 -0.002,-3.237 -7.536,-11.23 -16.824,-11.23 z m 5.992,9.434 c 0,1.43 -1.158,2.586 -2.591,2.586 -1.423,0 -2.594,-1.156 -2.594,-2.586 0,-1.43 1.171,-2.591 2.594,-2.591 1.433,0 2.591,1.161 2.591,2.591 z"
           id="path152"
           inkscape:connector-curvature="0"
           style="fill:#26a9e0" /></g></g></g><g
     id="Thimble"
     display="none"
     style="display:none"
     transform="translate(0,192)"><g
       display="inline"
       id="g155"
       style="display:inline"><g
         id="g157"><path
           d="M 208.31,61.014 V 39.285 c 0,-3.921 -0.45,-4.693 -2.699,-4.693 -1.607,0 -3.858,1.092 -5.722,2.764 v 23.659 h -8.166 V 39.606 c 0,-4.115 -0.578,-5.08 -2.958,-5.08 -1.607,0 -3.792,0.837 -5.656,2.507 v 23.98 h -8.423 V 38.062 c 0,-4.756 -0.322,-6.813 -1.22,-8.421 l 7.779,-2.122 c 0.579,0.9 0.835,1.672 1.157,3.342 2.249,-2.186 5.015,-3.342 8.036,-3.342 2.701,0 4.95,0.9 6.685,2.701 0.45,0.448 0.9,1.029 1.287,1.607 3.021,-3.086 5.722,-4.308 9.321,-4.308 2.572,0 5.015,0.772 6.494,2.057 1.864,1.607 2.444,3.536 2.444,8.036 v 23.402 h -8.359 z"
           id="path159"
           inkscape:connector-curvature="0"
           style="fill:#333333" /><path
           d="m 245.859,57.156 c -2.508,2.829 -5.787,4.565 -10.865,4.565 -8.936,0 -14.788,-6.686 -14.788,-17.037 0,-10.35 5.915,-17.23 14.788,-17.23 4.693,0 8.357,1.607 11.187,4.952 2.636,3.086 3.793,6.685 3.793,12.022 -10e-4,5.656 -1.286,9.514 -4.115,12.728 z m -7.008,-21.601 c -0.837,-1.092 -2.188,-1.736 -3.729,-1.736 -2.057,0 -3.729,1.286 -4.436,3.343 -0.579,1.735 -0.9,4.051 -0.9,7.329 0,3.795 0.387,6.622 1.094,8.294 0.771,1.8 2.7,2.701 4.371,2.701 3.729,0 5.337,-3.344 5.337,-11.123 -0.001,-4.435 -0.58,-7.329 -1.737,-8.808 z"
           id="path161"
           inkscape:connector-curvature="0"
           style="fill:#333333" /><path
           d="m 274.856,61.014 h -24.237 v -5.336 l 15.492,-21.537 h -14.207 v -6.043 h 24.431 v 5.916 l -14.529,21.022 h 15.107 l -2.057,5.978 z"
           id="path163"
           inkscape:connector-curvature="0"
           style="fill:#333333" /><path
           d="m 283.792,24.368 c -2.893,0 -5.271,-2.377 -5.271,-5.334 0,-2.957 2.443,-5.337 5.4,-5.337 2.893,0 5.208,2.379 5.208,5.337 0,2.958 -2.379,5.334 -5.337,5.334 z m -4.307,36.646 V 28.676 l 8.616,-1.35 v 33.688 h -8.616 z"
           id="path165"
           inkscape:connector-curvature="0"
           style="fill:#333333" /><path
           d="m 301.987,61.786 c -3.665,0 -6.622,-1.735 -7.651,-4.501 -0.643,-1.67 -0.771,-2.699 -0.771,-7.392 V 25.334 c 0,-4.308 -0.128,-6.944 -0.45,-9.901 l 8.808,-1.992 c 0.322,1.8 0.45,3.921 0.45,8.551 v 25.651 c 0,5.656 0.065,6.428 0.579,7.329 0.321,0.579 1.028,0.9 1.736,0.9 0.32,0 0.514,0 0.964,-0.128 l 1.479,5.143 c -1.48,0.577 -3.281,0.899 -5.144,0.899 z"
           id="path167"
           inkscape:connector-curvature="0"
           style="fill:#333333" /><path
           d="m 316.196,61.786 c -3.664,0 -6.622,-1.735 -7.65,-4.501 -0.644,-1.67 -0.772,-2.699 -0.772,-7.392 V 25.334 c 0,-4.308 -0.128,-6.944 -0.449,-9.901 l 8.807,-1.992 c 0.322,1.8 0.45,3.921 0.45,8.551 v 25.651 c 0,5.656 0.065,6.428 0.579,7.329 0.321,0.579 1.028,0.9 1.737,0.9 0.319,0 0.514,0 0.964,-0.128 l 1.479,5.143 c -1.48,0.577 -3.281,0.899 -5.145,0.899 z"
           id="path169"
           inkscape:connector-curvature="0"
           style="fill:#333333" /><path
           d="m 347.181,62.687 c -1.992,-0.837 -3.792,-2.316 -4.628,-3.986 -0.644,0.642 -1.35,1.285 -1.993,1.735 -1.607,1.157 -3.922,1.801 -6.622,1.801 -7.329,0 -11.313,-3.729 -11.313,-10.287 0,-7.715 5.335,-11.315 15.814,-11.315 0.644,0 1.223,0 1.929,0.063 v -1.351 c 0,-3.664 -0.706,-4.885 -3.857,-4.885 -2.765,0 -5.979,1.351 -9.515,3.728 l -3.664,-6.172 c 1.735,-1.092 3.021,-1.735 5.335,-2.699 3.214,-1.35 5.979,-1.929 9.001,-1.929 5.529,0 9.322,2.057 10.607,5.722 0.45,1.35 0.644,2.379 0.579,5.915 l -0.193,11.057 c -0.063,3.601 0.193,5.143 3.086,7.329 l -4.566,5.274 z m -7.328,-16.074 c -5.979,0 -8.036,1.094 -8.036,5.015 0,2.571 1.607,4.308 3.793,4.308 1.607,0 3.214,-0.837 4.5,-2.25 l 0.13,-7.072 h -0.387 z"
           id="path171"
           inkscape:connector-curvature="0"
           style="fill:#333333" /></g></g><g
       display="inline"
       id="g173"
       style="display:inline"><path
         d="m 224.104,89.948 h -21.931 v 75.118 H 187.678 V 89.948 h -22.056 v -12.1 h 60.372 l -1.89,12.1 z"
         id="path175"
         inkscape:connector-curvature="0"
         style="fill:#333333" /><path
         d="m 267.212,165.066 v -43.357 c 0,-7.94 -2.773,-10.209 -8.066,-10.209 -4.916,0 -10.84,3.151 -15.377,7.814 v 45.751 h -13.99 V 89.192 c 0,-5.672 -0.504,-10.587 -1.261,-13.864 l 13.99,-3.025 c 0.883,3.655 1.261,8.823 1.261,14.999 v 13.612 c 0,3.529 -0.252,6.554 -0.252,7.185 6.302,-5.672 12.729,-8.319 19.536,-8.319 7.562,0 13.359,3.655 15.502,7.814 1.639,3.151 2.143,6.05 2.143,12.478 v 44.996 h -13.486 z"
         id="path177"
         inkscape:connector-curvature="0"
         style="fill:#333333" /><path
         d="m 302.527,91.838 c -5.042,0 -8.949,-4.159 -8.949,-9.201 0,-5.167 4.033,-9.327 9.201,-9.327 4.915,0 9.074,4.033 9.074,9.327 0,5.042 -4.159,9.201 -9.326,9.201 z m -6.933,73.228 V 102.3 l 13.99,-2.521 v 65.288 h -13.99 z"
         id="path179"
         inkscape:connector-curvature="0"
         style="fill:#333333" /><path
         d="m 392.272,165.066 v -44.113 c 0,-7.436 -1.638,-9.579 -6.554,-9.579 -4.663,0 -9.074,3.151 -13.486,7.31 v 46.382 h -13.233 v -43.735 c 0,-7.437 -1.639,-9.831 -6.933,-9.831 -3.906,0 -8.444,2.017 -13.107,6.302 v 47.264 h -13.486 v -45.751 c 0,-7.94 -0.756,-12.73 -2.269,-16.133 l 12.604,-3.529 c 1.261,2.017 2.017,4.664 2.27,8.192 5.041,-5.167 10.965,-8.066 16.889,-8.066 5.672,0 10.587,1.891 15.251,9.327 6.176,-6.302 12.226,-9.327 19.031,-9.327 10.461,0 16.637,5.42 16.637,18.654 v 46.634 h -13.614 z"
         id="path181"
         inkscape:connector-curvature="0"
         style="fill:#333333" /><path
         d="m 449.374,166.453 c -6.302,0 -11.595,-2.521 -15.502,-7.311 -0.631,3.403 -0.883,4.411 -1.765,5.924 h -12.73 c 1.135,-2.898 1.639,-5.672 1.639,-14.242 v -60.12 c 0,-7.31 -0.504,-11.848 -1.639,-15.376 l 14.369,-3.151 c 0.756,4.537 1.008,7.688 1.008,12.729 v 14.873 c 0,3.655 -0.252,5.672 -0.378,6.05 l 0.504,0.126 c 4.411,-4.285 9.075,-6.176 15.125,-6.176 15.25,0 24.829,12.478 24.829,32.391 -10e-4,20.419 -10.587,34.283 -25.46,34.283 z M 446.979,111.5 c -5.798,0 -9.579,3.277 -12.1,6.428 v 31.131 c 2.773,2.898 6.807,5.546 11.848,5.546 8.696,0 12.478,-6.302 12.478,-22.309 0,-11.469 -2.269,-20.796 -12.226,-20.796 z"
         id="path183"
         inkscape:connector-curvature="0"
         style="fill:#333333" /><path
         d="m 500.169,166.453 c -13.99,0 -13.99,-12.604 -13.99,-18.023 V 94.107 c 0,-8.697 -0.378,-13.36 -1.26,-18.654 l 14.242,-3.151 c 1.008,3.907 1.134,9.201 1.134,17.519 v 54.07 c 0,8.571 0.378,9.957 1.387,11.47 0.756,1.135 2.898,1.765 4.537,1.009 l 2.269,8.57 c -2.521,1.008 -5.167,1.513 -8.319,1.513 z"
         id="path185"
         inkscape:connector-curvature="0"
         style="fill:#333333" /><path
         d="m 528.152,136.96 v 1.008 c 0,8.823 3.277,18.15 15.755,18.15 5.924,0 11.091,-2.143 15.881,-6.303 l 5.419,8.445 c -6.68,5.671 -14.368,8.444 -22.938,8.444 -18.023,0 -29.367,-12.982 -29.367,-33.4 0,-11.218 2.396,-18.653 7.94,-24.955 5.168,-5.924 11.47,-8.571 19.536,-8.571 6.302,0 12.1,1.639 17.52,6.554 5.546,5.042 8.318,12.855 8.318,27.728 v 2.899 h -38.064 z m 12.225,-26.72 c -7.814,0 -12.1,6.176 -12.1,16.511 h 23.569 c 10e-4,-10.335 -4.536,-16.511 -11.469,-16.511 z"
         id="path187"
         inkscape:connector-curvature="0"
         style="fill:#333333" /></g><g
       display="inline"
       id="g189"
       style="display:inline"><path
         d="m 141.802,149.958 c -1.394,-1.393 -8.318,-5.183 -8.318,-5.183 0,0 -10.931,-101.675 -12.929,-104.966 C 118.557,36.518 96.969,15.44 65.381,15.44 39.411,15.438 14.532,34.372 12.668,39.809 10.734,45.447 -0.27,144.765 -0.27,144.765 c 0,0 -6.935,3.45 -8.008,5.193 -1.073,1.743 -3.02,9.327 -1.767,14.168 1.251,4.841 40.171,19.355 76.759,19.355 34.663,0 74.572,-15.273 76.819,-19.355 1.408,-2.556 -0.341,-12.774 -1.731,-14.168 z"
         id="path191"
         inkscape:connector-curvature="0"
         style="fill:#a3b5be" /><path
         d="m 42.53,64.796 c 0,3.43 -2.787,6.2 -6.202,6.2 -3.418,0 -6.202,-2.77 -6.202,-6.2 0,-3.418 2.784,-6.189 6.202,-6.189 3.415,0 6.202,2.771 6.202,6.189 z"
         id="path193"
         inkscape:connector-curvature="0"
         style="fill:#ffffff" /><path
         d="m 70.453,58.604 c 0,3.43 -2.784,6.196 -6.205,6.196 -3.403,0 -6.19,-2.766 -6.19,-6.196 0,-3.419 2.787,-6.191 6.19,-6.191 3.421,0.001 6.205,2.772 6.205,6.191 z"
         id="path195"
         inkscape:connector-curvature="0"
         style="fill:#ffffff" /><path
         d="m 70.453,83.592 c 0,3.419 -2.784,6.19 -6.205,6.19 -3.403,0 -6.19,-2.771 -6.19,-6.19 0,-3.418 2.787,-6.199 6.19,-6.199 3.421,0 6.205,2.781 6.205,6.199 z"
         id="path197"
         inkscape:connector-curvature="0"
         style="fill:#ffffff" /><path
         d="m 70.453,111.711 c 0,3.416 -2.784,6.196 -6.205,6.196 -3.403,0 -6.19,-2.781 -6.19,-6.196 0,-3.421 2.787,-6.193 6.19,-6.193 3.421,0.001 6.205,2.772 6.205,6.193 z"
         id="path199"
         inkscape:connector-curvature="0"
         style="fill:#ffffff" /><path
         d="m 98.376,64.791 c 0,3.43 -2.787,6.199 -6.213,6.199 -3.407,0 -6.191,-2.769 -6.191,-6.199 0,-3.418 2.784,-6.189 6.191,-6.189 3.426,-10e-4 6.213,2.771 6.213,6.189 z"
         id="path201"
         inkscape:connector-curvature="0"
         style="fill:#ffffff" /><path
         d="m 93.965,92.88 c 0,2.052 -1.67,3.709 -3.718,3.709 -2.027,0 -3.696,-1.657 -3.696,-3.709 0,-2.039 1.669,-3.699 3.696,-3.699 2.048,0 3.718,1.66 3.718,3.699 z"
         id="path203"
         inkscape:connector-curvature="0"
         style="fill:#ffffff" /><path
         d="m 93.965,110.624 c 0,2.043 -1.67,3.702 -3.718,3.702 -2.027,0 -3.696,-1.659 -3.696,-3.702 0,-2.048 1.669,-3.704 3.696,-3.704 2.048,0 3.718,1.656 3.718,3.704 z"
         id="path205"
         inkscape:connector-curvature="0"
         style="fill:#ffffff" /><path
         d="m 39.412,92.88 c 0,2.052 -1.649,3.709 -3.697,3.709 -2.05,0 -3.719,-1.657 -3.719,-3.709 0,-2.039 1.669,-3.699 3.719,-3.699 2.048,0 3.697,1.66 3.697,3.699 z"
         id="path207"
         inkscape:connector-curvature="0"
         style="fill:#ffffff" /><path
         d="m 39.412,110.624 c 0,2.043 -1.649,3.702 -3.697,3.702 -2.05,0 -3.719,-1.659 -3.719,-3.702 0,-2.048 1.669,-3.704 3.719,-3.704 2.048,0 3.697,1.656 3.697,3.704 z"
         id="path209"
         inkscape:connector-curvature="0"
         style="fill:#ffffff" /><path
         d="m 141.802,149.958 c -1.394,-1.393 -8.318,-5.183 -8.318,-5.183 0,0 -10.931,-101.675 -12.929,-104.966 C 118.557,36.518 96.969,15.44 65.381,15.44 l -1.125,113.808 c 0,0 -32.261,1.267 -64.527,15.518 0,0 -6.935,3.45 -8.008,5.193 -1.073,1.743 -2.893,9.703 -1.767,14.168 1.127,4.464 40.715,19.355 76.759,19.355 35.676,0 75.718,-15.852 76.819,-19.355 1.103,-3.506 -0.34,-12.775 -1.73,-14.169 z"
         id="path211"
         inkscape:connector-curvature="0"
         style="opacity:0.2;fill:#ffffff" /><path
         d="m 125.408,159.554 c 0,0 -24.238,12.828 -58.693,12.828 -32.414,0 -58.621,-12.828 -58.621,-12.828 0,0 25.779,-14.784 58.621,-14.784 34.208,0 58.693,14.784 58.693,14.784 z"
         id="path213"
         inkscape:connector-curvature="0"
         style="fill:#647882" /></g></g></svg>