<?xml version="1.0" encoding="UTF-8" standalone="no"?>
<!-- Generator: Adobe Illustrator 16.0.3, SVG Export Plug-In . SVG Version: 6.00 Build 0)  -->

<svg
   xmlns:dc="http://purl.org/dc/elements/1.1/"
   xmlns:cc="http://creativecommons.org/ns#"
   xmlns:rdf="http://www.w3.org/1999/02/22-rdf-syntax-ns#"
   xmlns:svg="http://www.w3.org/2000/svg"
   xmlns="http://www.w3.org/2000/svg"
   xmlns:sodipodi="http://sodipodi.sourceforge.net/DTD/sodipodi-0.dtd"
   xmlns:inkscape="http://www.inkscape.org/namespaces/inkscape"
   version="1.1"
   id="Layer_1"
   x="0px"
   y="0px"
   width="400"
   height="400"
   viewBox="0 0 400 400"
   enable-background="new 0 0 180 62"
   xml:space="preserve"
   inkscape:version="0.48.5 r10040"
   sodipodi:docname="thimble-logo.svg"
   inkscape:export-filename="/home/panaggio/workspace/talks/talk-webmaker/imgs/thimble-logo.png"
   inkscape:export-xdpi="90"
   inkscape:export-ydpi="90"><metadata
     id="metadata75"><rdf:RDF><cc:Work
         rdf:about=""><dc:format>image/svg+xml</dc:format><dc:type
           rdf:resource="http://purl.org/dc/dcmitype/StillImage" /><dc:title></dc:title></cc:Work></rdf:RDF></metadata><defs
     id="defs73" /><sodipodi:namedview
     pagecolor="#ffffff"
     bordercolor="#666666"
     borderopacity="1"
     objecttolerance="10"
     gridtolerance="10"
     guidetolerance="10"
     inkscape:pageopacity="0"
     inkscape:pageshadow="2"
     inkscape:window-width="1366"
     inkscape:window-height="741"
     id="namedview71"
     showgrid="false"
     showguides="true"
     inkscape:guide-bbox="true"
     inkscape:zoom="1.0338976"
     inkscape:cx="125.33211"
     inkscape:cy="184.50807"
     inkscape:window-x="0"
     inkscape:window-y="27"
     inkscape:window-maximized="1"
     inkscape:current-layer="Layer_1" /><path
     style="fill:#a3b5be"
     inkscape:connector-curvature="0"
     id="path33"
     d="m 377.70498,318.72484 c -3.28071,-3.26397 -19.53359,-12.16037 -19.53359,-12.16037 0,0 -25.6598,-238.746621 -30.35489,-246.479709 C 323.11304,52.368409 272.43786,2.8732821 198.26213,2.8732821 137.28453,2.8649127 78.867897,47.330183 74.482464,60.084761 69.946387,73.33312 44.102465,306.53099 44.102465,306.53099 c 0,0 -16.277987,8.10133 -18.805469,12.19385 -2.510744,4.09251 -7.097036,21.91042 -4.151097,33.27572 2.94594,11.3653 94.328641,45.45283 180.246291,45.45283 81.39831,0 175.09926,-35.86179 180.38019,-45.45283 3.29744,-6.00067 -0.8118,-29.98664 -4.0674,-33.27572" /><path
     style="fill:#ffffff"
     inkscape:connector-curvature="0"
     id="path35"
     d="m 144.60754,118.76084 c 0,8.05948 -6.54467,14.55394 -14.57069,14.55394 -8.01764,0 -14.55395,-6.49446 -14.55395,-14.55394 0,-8.02601 6.53631,-14.52883 14.55395,-14.52883 8.02602,0 14.57069,6.50282 14.57069,14.52883 z" /><path
     style="fill:#ffffff"
     inkscape:connector-curvature="0"
     id="path37"
     d="m 210.17142,104.22364 c 0,8.05948 -6.5363,14.54556 -14.57067,14.54556 -7.99254,0 -14.53722,-6.48608 -14.53722,-14.54556 0,-8.017651 6.54468,-14.528838 14.53722,-14.528838 8.026,0 14.57067,6.502823 14.57067,14.528838" /><path
     style="fill:#ffffff"
     inkscape:connector-curvature="0"
     id="path39"
     d="m 210.17142,162.89972 c 0,8.026 -6.5363,14.52883 -14.57067,14.52883 -7.99254,0 -14.53722,-6.50283 -14.53722,-14.52883 0,-8.01765 6.54468,-14.55396 14.53722,-14.55396 8.026,0 14.57067,6.53631 14.57067,14.55396" /><path
     style="fill:#ffffff"
     inkscape:connector-curvature="0"
     id="path41"
     d="m 210.17142,228.93227 c 0,8.02601 -6.5363,14.53721 -14.57067,14.53721 -7.99254,0 -14.53722,-6.5112 -14.53722,-14.53721 0,-8.04275 6.54468,-14.54557 14.53722,-14.54557 8.026,-0.008 14.57067,6.50282 14.57067,14.54557" /><path
     style="fill:#ffffff"
     inkscape:connector-curvature="0"
     id="path43"
     d="m 275.72693,118.75246 c 0,8.05113 -6.5363,14.56232 -14.58741,14.56232 -7.99254,0 -14.52884,-6.50282 -14.52884,-14.56232 0,-8.01763 6.5363,-14.52882 14.52884,-14.52882 8.05111,0 14.58741,6.50282 14.58741,14.52882" /><path
     style="fill:#ffffff"
     inkscape:connector-curvature="0"
     id="path45"
     d="m 265.37431,184.70971 c 0,4.82062 -3.91676,8.72065 -8.72065,8.72065 -4.76204,0 -8.67881,-3.89166 -8.67881,-8.72065 0,-4.78716 3.91677,-8.68718 8.67881,-8.68718 4.80389,-0.008 8.72065,3.90002 8.72065,8.68718" /><path
     style="fill:#ffffff"
     inkscape:connector-curvature="0"
     id="path47"
     d="m 265.37431,226.37968 c 0,4.78715 -3.91676,8.68718 -8.72065,8.68718 -4.76204,0 -8.67881,-3.90003 -8.67881,-8.68718 0,-4.81226 3.91677,-8.69554 8.67881,-8.69554 4.80389,0 8.72065,3.88328 8.72065,8.69554" /><path
     style="fill:#ffffff"
     inkscape:connector-curvature="0"
     id="path49"
     d="m 137.27616,184.70971 c 0,4.82062 -3.8749,8.72065 -8.68717,8.72065 -4.81226,0 -8.72065,-3.89166 -8.72065,-8.72065 0,-4.78716 3.91676,-8.68718 8.72065,-8.68718 4.80389,0 8.68717,3.90002 8.68717,8.68718 z" /><circle
     style="fill:#ffffff"
     sodipodi:ry="1.04"
     sodipodi:rx="1.04"
     sodipodi:cy="33.541"
     sodipodi:cx="19.657"
     id="circle51"
     r="1.04"
     cy="33.541"
     cx="19.657"
     transform="matrix(8.3691455,0,0,8.3691455,-35.940043,-54.329828)" /><path
     style="fill:#ffffff"
     inkscape:connector-curvature="0"
     id="path53"
     d="m 21.145899,352.00056 c 0.01674,0.0586 0.03347,0.10039 0.05022,0.15064 -0.01674,-0.0586 -0.03347,-0.0921 -0.05022,-0.15064 m 360.618111,0 c -5.28093,9.59104 -98.98189,45.45283 -180.38019,45.45283 83.77515,-0.008 177.8025,-37.22596 180.38019,-45.45283 m -4.03392,-33.23388 c 0.65279,0.6779 1.32231,2.15087 1.97511,4.13436 -0.62768,-1.97512 -1.30558,-3.43973 -1.97511,-4.13436 m -0.008,-0.0251 c 0,0 0,0.0166 0.008,0.0166 -0.008,0 -0.008,-0.0166 -0.008,-0.0166" /><path
     style="fill:#b5c4cb"
     inkscape:connector-curvature="0"
     id="path55"
     d="m 256.65366,235.06686 c -4.76204,0 -8.67881,-3.90003 -8.67881,-8.68718 0,-4.81226 3.91677,-8.69554 8.67881,-8.69554 4.80389,0 8.72065,3.88328 8.72065,8.69554 0,4.78715 -3.91676,8.68718 -8.72065,8.68718 m 0,-41.64486 c -4.76204,0 -8.67881,-3.89167 -8.67881,-8.72066 0,-4.78715 3.91677,-8.68718 8.67881,-8.68718 4.80389,0 8.72065,3.90003 8.72065,8.68718 0,4.82899 -3.91676,8.72066 -8.72065,8.72066 m 4.48586,-60.11558 c -7.99254,0 -14.52884,-6.50283 -14.52884,-14.56231 0,-8.01765 6.5363,-14.52885 14.52884,-14.52885 8.05111,0 14.58741,6.50282 14.58741,14.52885 0,8.05948 -6.5363,14.56231 -14.58741,14.56231 M 198.25376,2.8732821 l 0,0 -0.86203,86.9303179 c 7.18073,0.878756 12.77132,7.013345 12.77132,14.42004 0,7.54896 -5.73287,13.71703 -13.05586,14.47025 l -0.29293,29.70209 c 7.47365,0.62768 13.34879,6.89617 13.34879,14.50374 0,7.71635 -6.04252,14.02668 -13.63333,14.49536 l -0.36825,37.00836 c 7.77494,0.29291 14.00158,6.67858 14.00158,14.52046 0,7.92558 -6.38565,14.38657 -14.28613,14.53722 l -0.25944,26.63062 c 0,0 -75.74914,2.97104 -151.523383,36.43925 l 0,0 c 0,0 -16.277988,8.10133 -18.80547,12.19385 l 0,0 c -2.510744,4.09251 -6.795747,22.78918 -4.151097,33.27572 l 0,0 c 0.01674,0.0586 0.03347,0.10039 0.05022,0.15064 3.473197,10.65392 95.95225,45.30219 180.19607,45.30219 l 0,0 c 81.3983,0 175.09926,-35.86179 180.38019,-45.45283 l 0,0 c 2.04207,-6.51119 0.35151,-21.5087 -2.05881,-29.09952 -0.6528,-1.98349 -1.32232,-3.45646 -1.97511,-4.13436 v -0.008 c -0.008,0 -0.008,-0.0166 -0.008,-0.0166 -0.008,0 -0.008,-0.008 -0.0166,-0.0168 l 0,0 c -3.28071,-3.26397 -19.53359,-12.16037 -19.53359,-12.16037 0,0 -25.65979,-238.746616 -30.35489,-246.479705 C 323.11346,52.368774 272.43828,2.8736478 198.25418,2.8736478" /><path
     style="fill:#ffffff"
     inkscape:connector-curvature="0"
     id="path57"
     d="m 197.40011,89.8036 -0.28455,28.89029 c 7.32299,-0.75322 13.05586,-6.92129 13.05586,-14.47025 0,-7.406695 -5.59058,-13.541284 -12.77131,-14.42004" /><path
     style="fill:#ffffff"
     inkscape:connector-curvature="0"
     id="path59"
     d="m 196.82263,148.39598 -0.28455,29.00747 c 7.59081,-0.47705 13.63334,-6.78738 13.63334,-14.49537 0,-7.62428 -5.88351,-13.89277 -13.34879,-14.5121" /><path
     style="fill:#ffffff"
     inkscape:connector-curvature="0"
     id="path61"
     d="m 196.16147,214.40344 -0.27618,29.06604 c 7.90047,-0.15901 14.28613,-6.61163 14.28613,-14.53721 0,-7.85025 -6.23501,-14.22754 -14.00995,-14.52883" /><path
     style="fill:#ffffff"
     inkscape:connector-curvature="0"
     id="path63"
     d="m 261.13952,104.22364 c -7.99254,0 -14.52884,6.50282 -14.52884,14.52882 0,8.05113 6.5363,14.56232 14.52884,14.56232 8.05111,0 14.58741,-6.50282 14.58741,-14.56232 0,-8.026 -6.5363,-14.52882 -14.58741,-14.52882" /><path
     style="fill:#ffffff"
     inkscape:connector-curvature="0"
     id="path65"
     d="m 256.65366,176.01416 c -4.76204,0 -8.67881,3.90003 -8.67881,8.68718 0,4.82063 3.91677,8.72066 8.67881,8.72066 4.80389,0 8.72065,-3.89167 8.72065,-8.72066 0,-4.77879 -3.91676,-8.68718 -8.72065,-8.68718" /><path
     style="fill:#ffffff"
     inkscape:connector-curvature="0"
     id="path67"
     d="m 256.65366,217.68414 c -4.76204,0 -8.67881,3.88328 -8.67881,8.69554 0,4.78715 3.91677,8.68718 8.67881,8.68718 4.80389,0 8.72065,-3.90003 8.72065,-8.68718 0,-4.81226 -3.91676,-8.69554 -8.72065,-8.69554" /><path
     style="fill:#647882"
     inkscape:connector-curvature="0"
     id="path69"
     d="m 339.19853,341.26295 c 0,0 -56.91017,30.13729 -137.81471,30.13729 -76.11738,0 -137.647339,-30.13729 -137.647339,-30.13729 0,0 60.525659,-34.71522 137.647339,-34.71522 80.32706,-0.008 137.81471,34.71522 137.81471,34.71522 z" /></svg>